<svg xmlns="http://www.w3.org/2000/svg" xmlns:xlink="http://www.w3.org/1999/xlink">

<symbol id="github" fill-rule="evenodd" clip-rule="evenodd" stroke-linejoin="round" stroke-miterlimit="1.414" viewBox="0 0 16 16"><path d="M8 0C3.58 0 0 3.582 0 8c0 3.535 2.292 6.533 5.47 7.59.4.075.547-.172.547-.385 0-.19-.007-.693-.01-1.36-2.226.483-2.695-1.073-2.695-1.073-.364-.924-.89-1.17-.89-1.17-.725-.496.056-.486.056-.486.803.056 1.225.824 1.225.824.714 1.223 1.873.87 2.33.665.072-.517.278-.87.507-1.07-1.777-.2-3.644-.888-3.644-3.953 0-.873.31-1.587.823-2.147-.09-.202-.36-1.015.07-2.117 0 0 .67-.215 2.2.82.64-.178 1.32-.266 2-.27.68.004 1.36.092 2 .27 1.52-1.035 2.19-.82 2.19-.82.43 1.102.16 1.915.08 2.117.51.56.82 1.274.82 2.147 0 3.073-1.87 3.75-3.65 3.947.28.24.54.73.54 1.48 0 1.07-.01 1.93-.01 2.19 0 .21.14.46.55.38C13.71 14.53 16 11.53 16 8c0-4.418-3.582-8-8-8"/>
</symbol>
<symbol id="mastodon" fill-rule="evenodd" clip-rule="evenodd" stroke-linejoin="round" stroke-miterlimit="1.414" viewBox="0 0 16 16"><path d="M15.195,5.352c0-3.347-2.193-4.328-2.193-4.328c-1.104-0.508-3.004-0.721-4.977-0.737H7.977 c-1.973,0.016-3.87,0.229-4.976,0.737c0,0-2.193,0.981-2.193,4.328c0,0.766-0.015,1.683,0.009,2.654c0.08,3.272,0.6,6.499,3.626,7.3 c1.396,0.369,2.594,0.446,3.559,0.394c1.75-0.097,2.732-0.624,2.732-0.624l-0.058-1.27c0,0-1.25,0.395-2.655,0.346 c-1.391-0.047-2.86-0.149-3.085-1.857c-0.021-0.15-0.031-0.312-0.031-0.479c0,0,1.365,0.334,3.096,0.413 c1.059,0.049,2.051-0.062,3.059-0.182c1.934-0.231,3.616-1.422,3.828-2.51C15.224,7.821,15.195,5.352,15.195,5.352z M12.609,9.664 h-1.606V5.73c0-0.83-0.349-1.25-1.047-1.25c-0.772,0-1.158,0.5-1.158,1.486V8.12H7.202V5.966c0-0.987-0.387-1.486-1.158-1.486 c-0.698,0-1.046,0.421-1.046,1.25v3.933H3.391V5.611c0-0.829,0.211-1.487,0.634-1.974c0.437-0.487,1.009-0.736,1.719-0.736 c0.822,0,1.444,0.315,1.855,0.947L8,4.519l0.4-0.67c0.412-0.632,1.033-0.947,1.855-0.947c0.71,0,1.282,0.25,1.72,0.736 c0.423,0.487,0.635,1.145,0.635,1.974V9.664z"/>
</symbol>
<symbol id="devto" fill-rule="evenodd" clip-rule="evenodd" stroke-linejoin="round" stroke-miterlimit="1.414" viewBox="0 0 16 16"><path d="M4.548,6.415C4.419,6.318,4.29,6.271,4.161,6.271h-0.58v3.471h0.58c0.129,0,0.258-0.049,0.387-0.145 C4.677,9.5,4.742,9.355,4.742,9.163V6.85C4.741,6.656,4.676,6.511,4.548,6.415z M13.981,0.559H2.016 c-0.804,0-1.457,0.65-1.458,1.455v11.973c0.002,0.805,0.655,1.455,1.458,1.455h11.968c0.805,0,1.457-0.65,1.459-1.455V2.014 C15.438,1.209,14.786,0.559,13.981,0.559z M5.68,9.169c0,0.625-0.386,1.572-1.605,1.569H2.532V5.242h1.573 c1.179,0,1.573,0.945,1.574,1.57V9.169z M9.024,6.225h-1.77V7.5h1.082v0.982H7.255v1.275h1.771v0.982H6.959 c-0.371,0.009-0.679-0.283-0.688-0.654V5.931c-0.008-0.37,0.285-0.679,0.655-0.688h2.099V6.225z M12.47,10.055 c-0.438,1.021-1.226,0.817-1.576,0l-1.28-4.812h1.081l0.988,3.778l0.981-3.778h1.082L12.47,10.055z"/>
</symbol>
<symbol id="linkedin" fill-rule="evenodd" clip-rule="evenodd" stroke-linejoin="round" stroke-miterlimit="1.414" viewBox="0 0 16 16"><path d="M13.632 13.635h-2.37V9.922c0-.886-.018-2.025-1.234-2.025-1.235 0-1.424.964-1.424 1.96v3.778h-2.37V6H8.51v1.04h.03c.318-.6 1.092-1.233 2.247-1.233 2.4 0 2.845 1.58 2.845 3.637v4.188zM3.558 4.955c-.762 0-1.376-.617-1.376-1.377 0-.758.614-1.375 1.376-1.375.76 0 1.376.617 1.376 1.375 0 .76-.617 1.377-1.376 1.377zm1.188 8.68H2.37V6h2.376v7.635zM14.816 0H1.18C.528 0 0 .516 0 1.153v13.694C0 15.484.528 16 1.18 16h13.635c.652 0 1.185-.516 1.185-1.153V1.153C16 .516 15.467 0 14.815 0z"/>
</symbol>
<symbol id="rss" fill-rule="evenodd" clip-rule="evenodd" stroke-linejoin="round" stroke-miterlimit="1.414" viewBox="0 0 16 16"><path d="M12.8 16C12.8 8.978 7.022 3.2 0 3.2V0c8.777 0 16 7.223 16 16h-3.2zM2.194 11.61c1.21 0 2.195.985 2.195 2.196 0 1.21-.99 2.194-2.2 2.194C.98 16 0 15.017 0 13.806c0-1.21.983-2.195 2.194-2.195zM10.606 16h-3.11c0-4.113-3.383-7.497-7.496-7.497v-3.11c5.818 0 10.606 4.79 10.606 10.607z"/>
</symbol>
</svg>
